:SAMPLES-PER-SECOND 30
:FULLY-SPECIFIED
:DEGREES
427
root  18.4657 32.0207 -71.5306 0.244357 -60.4319 8.32375
RightUpLeg  3.50448 -15.5855 2.81834
RightLeg  21.9693 -11.47 -3.75829
RightFoot  -13.1345 0.283184 2.83713
RightToes  -24.0729 -0.105308 -0.208736
Spine  6.48222 5.11563 -0.782306
Spine1  12.4537 11.1147 -2.30523
HEad  -1.59538 46.2359 -16.2786
LeftShoulder1  0 -2.42657e-020 -4.95415e-022
LeftArm  -23.8446 30.6523 -83.4586
LeftForeArm  52.8289 -62.0528 -19.4718
LeftHand  -1.40023 -9.26597 16.7928
RightShoulder  0 2.42657e-020 1.07489e-018
RightArm  -8.24641 -1.39387 77.5639
RightForeArm  42.4675 57.1911 15.9259
RightHand  -2.9642 19.9346 -16.3856
LeftUpLeg  -36.9276 -7.96545 -9.52325
LeftLeg  48.2657 -2.64006 -2.6063
LeftFoot  -4.76322 0.0206672 0.496904
LeftToes  -26.9971 8.72033e-007 1.17809e-007
428
root  16.5793 32.2977 -71.2603 0.380673 -58.7129 8.13211
RightUpLeg  4.4249 -16.6068 3.64795
RightLeg  25.1066 -13.78 -5.33817
RightFoot  -6.34045 0.0763552 1.75624
RightToes  -32.895 -0.164356 -0.271575
Spine  6.35008 5.64367 -0.88696
Spine1  12.214 12.1871 -2.42603
HEad  -1.66559 44.7636 -15.9653
LeftShoulder1  0 -2.42657e-020 -4.95415e-022
LeftArm  -26.6058 32.0363 -84.0467
LeftForeArm  60.3822 -67.8631 -25.8012
LeftHand  -1.5713 -8.46357 20.6453
RightShoulder  0 2.42657e-020 1.07489e-018
RightArm  -6.77222 -1.59999 77.7834
RightForeArm  47.9777 63.2824 20.6024
RightHand  -3.00761 20.9636 -15.787
LeftUpLeg  -34.2401 -9.23545 -10.8839
LeftLeg  36.4313 -2.95653 -1.90484
LeftFoot  -6.16127 0.0286204 0.531776
LeftToes  -23.7407 8.72033e-007 1.17809e-007
429
root  14.6937 32.2915 -71.0411 0.63944 -57.1638 7.13842
RightUpLeg  1.01941 -19.0071 4.02641
RightLeg  36.9831 -11.8888 -7.71784
RightFoot  0.395285 0.00110854 0.0560922
RightToes  -38.1936 -0.204216 -0.304692
Spine  6.41709 5.90552 -0.703173
Spine1  12.4019 12.7114 -2.06304
HEad  -2.15937 43.9771 -15.8556
LeftShoulder1  0 -2.42657e-020 -4.95415e-022
LeftArm  -29.5202 31.6128 -84.8744
LeftForeArm  70.7891 -73.2141 -36.0041
LeftHand  -1.75313 -8.33109 23.377
RightShoulder  0 2.42657e-020 1.07489e-018
RightArm  -5.78651 -0.928028 77.6813
RightForeArm  54.8446 68.2011 26.3156
RightHand  -3.07926 21.4281 -15.805
LeftUpLeg  -31.4741 -11.02 -10.9779
LeftLeg  31.9908 -3.21338 -1.73345
LeftFoot  -7.08274 0.0365951 0.591303
LeftToes  -20.0988 8.72033e-007 1.17809e-007
430
root  12.7785 31.9374 -70.7678 -0.122089 -55.0621 6.91626
RightUpLeg  -4.4661 -21.834 3.26662
RightLeg  52.4717 -7.61377 -8.65067
RightFoot  7.06325 0.0982239 -1.21376
RightToes  -28.5546 -0.134095 -0.241796
Spine  6.59875 5.62897 -0.776078
Spine1  12.71 12.1972 -2.31116
HEad  -2.83352 43.9686 -14.9827
LeftShoulder1  0 -2.42657e-020 -4.95415e-022
LeftArm  -31.2617 29.6153 -83.4562
LeftForeArm  91.2517 -77.8679 -55.7123
LeftHand  -1.81151 -7.68587 26.1409
RightShoulder  0 2.42657e-020 1.07489e-018
RightArm  -5.89639 0.124851 78.796
RightForeArm  61.635 71.6839 32.4172
RightHand  -3.24541 21.3482 -16.7299
LeftUpLeg  -28.8912 -14.1717 -11.0385
LeftLeg  34.3272 -3.58919 -2.12848
LeftFoot  -7.93649 0.0505702 0.728974
LeftToes  -2.39635 8.72033e-007 1.17809e-007
431
root  10.9643 31.2438 -70.5457 -1.7923 -53.9934 7.02581
RightUpLeg  -10.5073 -22.3678 1.99008
RightLeg  67.6094 -3.53978 -7.32942
RightFoot  8.18373 0.0895956 -0.874743
RightToes  -30.2814 -0.145864 -0.253917
Spine  6.95512 5.55182 -0.976229
Spine1  13.2386 12.1668 -2.85199
HEad  -2.83753 43.9044 -13.4223
LeftShoulder1  0 -2.42657e-020 -4.95415e-022
LeftArm  -30.9509 24.831 -79.8393
LeftForeArm  120.399 -79.8576 -83.8872
LeftHand  -1.73245 -6.62361 28.9454
RightShoulder  0 2.42657e-020 1.07489e-018
RightArm  -6.69228 1.49929 79.3018
RightForeArm  65.6348 74.1975 38.8776
RightHand  -3.19744 20.7072 -17.0066
LeftUpLeg  -28.5348 -14.6611 -10.8565
LeftLeg  41.6463 -3.14398 -2.45611
LeftFoot  -9.16043 0.0671109 0.837705
LeftToes  -6.24333 8.72033e-007 1.17809e-007
432
root  9.15248 30.5517 -70.3225 -3.56294 -52.6594 7.07341
RightUpLeg  -16.1511 -22.0109 0.0714662
RightLeg  79.5594 -0.989001 -4.28241
RightFoot  1.73134 0.00245536 0.214964
RightToes  -28.9131 -0.136508 -0.244341
Spine  7.66534 5.36486 -1.11712
Spine1  14.3617 11.8065 -3.02965
HEad  -2.87053 42.3343 -11.9186
LeftShoulder1  0 -2.42657e-020 -4.95415e-022
LeftArm  -29.2567 15.4939 -75.2663
LeftForeArm  134.248 -79.8542 -96.0804
LeftHand  -1.60944 -5.96413 29.8426
RightShoulder  0 2.42657e-020 1.07489e-018
RightArm  -8.2053 2.93645 78.8253
RightForeArm  68.4023 76.4293 47.4618
RightHand  -2.91857 19.9381 -16.1283
LeftUpLeg  -27.5896 -12.3617 -10.8458
LeftLeg  48.7744 -4.61167 -4.61873
LeftFoot  -13.9308 0.221136 1.80988
LeftToes  -3.42779 8.72033e-007 1.17809e-007
433
root  7.40224 29.9465 -70.0996 -4.0997 -51.5063 6.41478
RightUpLeg  -22.2554 -21.2053 -2.17349
RightLeg  87.255 -0.273156 -3.36061
RightFoot  -1.13605 0.000490419 0.427277
RightToes  -25.7424 -0.115729 -0.221313
Spine  8.30398 4.90803 -0.848729
Spine1  15.427 10.6362 -2.10004
HEad  -2.40343 39.9966 -10.8197
LeftShoulder1  0 -2.42657e-020 -4.95415e-022
LeftArm  -27.9047 3.70879 -72.3727
LeftForeArm  132.103 -79.9059 -92.3928
LeftHand  -1.65708 -6.25947 29.2905
RightShoulder  0 2.42657e-020 1.07489e-018
RightArm  -9.85852 6.66973 77.9612
RightForeArm  66.1077 77.3454 52.4354
RightHand  -2.32833 19.746 -12.9536
LeftUpLeg  -25.9339 -11.5402 -9.83612
LeftLeg  53.4524 -5.23381 -6.16284
LeftFoot  -18.97 0.479064 2.86679
LeftToes  -6.27538 8.72033e-007 1.17809e-007
434
root  5.71379 29.6321 -69.9518 -4.1697 -51.3828 5.99417
RightUpLeg  -28.6091 -20.4831 -4.73675
RightLeg  89.56 -0.160065 -3.75162
RightFoot  -4.43857 0.0130777 0.71512
RightToes  -21.9785 -0.0927604 -0.192536
Spine  8.5716 4.06959 -0.809313
Spine1  15.5189 8.77144 -1.77906
HEad  -0.782816 39.5953 -9.25097
LeftShoulder1  0 -2.42657e-020 -4.95415e-022
LeftArm  -27.7969 -5.96715 -70.6617
LeftForeArm  121.09 -79.8664 -84.3787
LeftHand  -1.69215 -6.30785 29.6676
RightShoulder  0 2.42657e-020 1.07489e-018
RightArm  -8.97753 14.2799 80.894
RightForeArm  57.4817 74.993 41.5474
RightHand  -2.39466 20.2535 -12.9826
LeftUpLeg  -23.9135 -12.2815 -8.64586
LeftLeg  55.7199 -4.64774 -5.93817
LeftFoot  -22.5226 0.62709 3.14858
LeftToes  -8.23036 8.72033e-007 1.17809e-007
435
root  4.03783 29.6627 -69.9158 -2.49459 -52.8973 4.46838
RightUpLeg  -34.766 -20.5892 -5.80327
RightLeg  85.7893 -0.720335 -5.91407
RightFoot  -7.40152 0.0585262 1.2825
RightToes  -19.799 -0.080341 -0.175204
Spine  8.69739 4.00564 -0.349246
Spine1  15.4266 8.43938 -0.677309
HEad  1.06145 37.9542 -7.8556
LeftShoulder1  0 -2.42657e-020 -4.95415e-022
LeftArm  -27.2741 -14.3433 -73.4011
LeftForeArm  97.2881 -79.1923 -68.7376
LeftHand  -1.38217 -4.75459 32.0768
RightShoulder  0 2.42657e-020 1.07489e-018
RightArm  -8.15621 23.2673 84.3041
RightForeArm  46.9973 71.0623 31.169
RightHand  -2.38636 21.1907 -12.3403
LeftUpLeg  -21.3976 -12.1199 -6.39581
LeftLeg  55.1227 -3.96854 -4.97097
LeftFoot  -25.0098 0.656285 2.95848
LeftToes  -9.61799 8.72033e-007 1.17809e-007
436
root  2.37934 29.9949 -69.9144 -0.047937 -54.9982 2.91189
RightUpLeg  -39.9435 -21.2884 -5.93817
RightLeg  77.1759 -2.03565 -7.11957
RightFoot  -7.90646 0.0839334 1.59219
RightToes  -17.2264 -0.0665428 -0.154156
Spine  8.87076 4.67102 0.278709
Spine1  15.6577 9.57292 0.803008
HEad  2.02484 33.896 -7.91756
LeftShoulder1  0 -2.42657e-020 -4.95415e-022
LeftArm  -25.4144 -20.9923 -78.9328
LeftForeArm  68.2862 -77.144 -51.1912
LeftHand  -0.777448 -2.63449 32.5895
RightShoulder  0 2.42657e-020 1.07489e-018
RightArm  -9.46885 32.984 87.9464
RightForeArm  28.9234 62.7371 20.1135
RightHand  -1.27583 19.5657 -7.02176
LeftUpLeg  -18.1096 -12.4864 -4.2694
LeftLeg  51.6703 -2.80245 -3.11475
LeftFoot  -26.0618 0.487034 2.10416
LeftToes  -10.6688 8.72033e-007 1.17809e-007
